<svg xmlns="http://www.w3.org/2000/svg" viewBox="0 0 32 32">
  <!-- Sfondo circolare -->
  <circle cx="16" cy="16" r="16" fill="#12B6D1"/>
  
  <!-- La S stilizzata de Il Post -->
  <path fill="#ffffff" d="M14.5 8.2c1.8 0 3.2.4 4.2 1.3 1 .9 1.5 2 1.5 3.5 0 1.2-.3 2.2-1 3-.6.8-1.5 1.3-2.7 1.6.7.2 1.2.4 1.7.8.5.4.8.9 1.1 1.5.3.6.4 1.3.4 2.1 0 1.6-.5 2.8-1.6 3.7-1.1.9-2.5 1.3-4.3 1.3-1.8 0-3.3-.4-4.4-1.3-1.1-.9-1.7-2.1-1.7-3.7h3.2c0 .8.3 1.4.8 1.9.5.5 1.2.7 2.1.7.9 0 1.6-.2 2.1-.7.5-.5.7-1.1.7-1.9 0-.9-.3-1.6-.8-2-.5-.4-1.3-.6-2.3-.6h-1.2v-2.4h1.2c.9 0 1.6-.2 2.1-.6.5-.4.7-1 .7-1.8 0-.7-.2-1.3-.7-1.7-.4-.4-1.1-.6-1.9-.6-.8 0-1.4.2-1.9.6-.5.4-.7 1-.7 1.7h-3.2c0-1.5.6-2.7 1.7-3.5 1.1-.9 2.5-1.3 4.2-1.3z"/>
  
  <!-- Onde del podcast sovrapposte -->
  <path fill="#ffffff" opacity="0.9" d="M22 16c0-3.3-2.7-6-6-6v2c2.2 0 4 1.8 4 4h2z"/>
  <path fill="#ffffff" opacity="0.7" d="M24 16c0-4.4-3.6-8-8-8v2c3.3 0 6 2.7 6 6h2z"/>
  <path fill="#ffffff" opacity="0.5" d="M26 16c0-5.5-4.5-10-10-10v2c4.4 0 8 3.6 8 8h2z"/>
</svg> 