<svg xmlns="http://www.w3.org/2000/svg" width="103" height="35" fill="none" viewBox="0 0 214 76"><path fill="#242424" d="M97.4012 59.6176c-1.5931.7261-3.3543 1.0896-5.2845 1.0896-1.9294 0-3.691-.3742-5.2832-1.1253-1.593-.7498-2.9561-1.7532-4.0892-3.0129-1.1348-1.2575-2.0148-2.7084-2.6429-4.3561-.6268-1.6439-.9396-3.3863-.9396-5.2253v-.1459c0-1.839.2999-3.5819.9036-5.2265.6023-1.6447 1.4712-3.0853 2.6047-4.3196 1.1352-1.2347 2.4867-2.2144 4.0548-2.941 1.5677-.7256 3.3174-1.0887 5.2481-1.0887 1.9294 0 3.691.3756 5.284 1.1262 1.5922.7511 2.967 1.7541 4.125 3.0116 1.157 1.2588 2.051 2.7123 2.678 4.3566.627 1.6451.942 3.388.942 5.2273v.1447c0 1.8398-.315 3.5814-.942 5.2253-.627 1.6464-1.496 3.0865-2.605 4.3203-1.111 1.2343-2.4612 2.2145-4.0538 2.9397Zm-16.219 11.7243c3.3199 1.3794 6.9285 2.0698 10.8272 2.0698 3.897 0 7.5056-.6904 10.8256-2.0698 3.321-1.3789 6.209-3.2665 8.662-5.6614 2.454-2.3958 4.367-5.2024 5.739-8.4212 1.371-3.2183 2.058-6.6429 2.058-10.2717v-.1459c0-3.6292-.687-7.0413-2.058-10.2364-1.372-3.1942-3.26-5.9759-5.666-8.3475-2.408-2.3708-5.27-4.2476-8.59-5.6262-3.3199-1.3798-6.9286-2.0689-10.8268-2.0689-3.897 0-7.5061.6891-10.826 2.0689-3.3212 1.3786-6.2078 3.2662-8.6628 5.6615-2.4536 2.3962-4.3667 5.2028-5.7379 8.4224-1.3717 3.2179-2.0569 6.6417-2.0569 10.2721v.1447c0 3.6297.6852 7.0418 2.0569 10.2356 1.3712 3.1937 3.2589 5.978 5.6663 8.3492 2.4052 2.3716 5.269 4.2459 8.5894 5.6248ZM47.2315 45.0853c-1.4262 1.1732-3.3937 1.7596-5.9035 1.7596h-6.6635v-13.284h6.5903c2.5589 0 4.5505.563 5.9767 1.6871 1.4229 1.124 2.1354 2.7649 2.1354 4.9189v.144c0 2.0112-.7125 3.603-2.1354 4.7744Zm-4.8901-23.0942H20.6136v49.9922h14.0509V57.6995h6.9528c3.1375 0 6.0473-.3801 8.7281-1.1423 2.6791-.76 4.9844-1.9035 6.9161-3.4275 1.9309-1.5236 3.4398-3.4043 4.5273-5.6421 1.0857-2.2375 1.6299-4.8329 1.6299-7.7842v-.1437c0-2.7607-.496-5.2362-1.4866-7.427-.9893-2.1896-2.4018-4.036-4.2366-5.535-1.8348-1.5002-4.0563-2.642-6.663-3.4279-2.6067-.7864-5.5041-1.1787-8.6911-1.1787ZM186.161 34.1319h-15.212V21.9911h44.471v12.1408h-15.209v37.8514h-14.05V34.1319ZM6.31675 26.2761H.587891v-4.285H6.31675v4.285Zm0 15.7119H.587891V29.1328H6.31675V41.988Zm2.86443 0H14.91V21.9911H9.18118V41.988Z"></path><path fill="#12B6D1" d="M148.429.565918c5.481 0 10.745 1.928282 14.534 5.353812 3.524 3.1847 5.782 7.65907 5.782 13.09737 0 6.7917-2.933 9.8388-5.426 12.4056-1.14 1.1735-2.201 2.2228-2.719 3.5733 2.816.7018 5.351 2.3119 7.214 4.4867 1.986 2.3192 3.207 5.2772 3.207 8.4561 0 7.7388-3.682 11.1072-8.971 15.8219-3.6 3.209-7.949 7.08-12.275 13.6173-.138.2083-.273.4156-.407.6219-.198-.1544-.392-.2981-.58-.4301-4.251-2.9837-14.867-6.3957-19.859-6.3957-2.371 0-3.612.9484-4.752 2.9197l-.162.2885-3.121-.931c4.081-5.2237 7.861-10.8997 10.769-16.917-2.714-1.4074-5.079-3.1242-6.725-5.3464-1.536-2.0742-2.458-4.5867-2.458-7.7075 0-6.7911 4.354-11.0115 9.371-14.9337l.369-.2865.883-.6793 1.425-1.0868c3.854-2.9448 7.659-5.9653 9.458-10.2652.159-.3802.301-.7653.426-1.1542.247.3306.503.6539.765.9694 2.568 3.0939 5.946 5.7251 9.969 5.7251 2.272 0 4.525-.6243 6.117-1.9913 1.322-1.1354 2.164-2.7906 2.164-5.0017 0-3.261-1.679-5.68339-4.014-7.39643-3.211-2.35624-7.657-3.40072-10.984-3.40072-3.874 0-7.717 1.11069-10.643 3.0501-2.649 1.75569-4.551 4.19485-4.946 7.12065-.231 1.7185.419 3.0888 1.302 4.0578.89.976 2.238 1.2772 3.727 1.2772.412 0 .813-.0231 1.197-.0769-.149.4291-.354.8464-.622 1.2289-1.059 1.5152-2.938 2.242-4.154 2.242-1.911 0-3.209-.731-4.08-1.7318-1.189-1.366-1.565-3.2848-1.533-4.6485.111-4.7497 2.281-8.68312 5.754-11.45955 3.562-2.84756 8.511-4.473032 13.998-4.473032ZM146.886 46.4527c-2.697 0-5.364 1.1485-7.666 2.9063-2.27 1.7331-4.189 4.0637-5.436 6.5263 7.844.2861 15.211 3.5041 21.913 7.775.794-1.3684 1.002-3.0693 1.002-4.6016 0-3.4358-.906-6.8495-2.82-9.2704-1.603-2.027-3.922-3.3356-6.993-3.3356Zm-10.518-18.6415c-.323.2605-.553.6022-.719.9815-.35.7988-.433 1.7584-.433 2.6181 0 3.0199 1.151 6.2814 3.136 8.6771 1.716 2.0704 4.065 3.4969 6.851 3.4969 2.464 0 4.896-1.1718 6.976-2.8735 1.861-1.522 3.445-3.475 4.52-5.45-1.377.5-2.958.7224-4.44.7224-5.943 0-11.899-3.7955-15.891-8.1725Z"></path></svg>